<?xml version="1.0" encoding="UTF-8" standalone="no"?>
<!-- Created with Inkscape (http://www.inkscape.org/) -->

<svg
   xmlns:dc="http://purl.org/dc/elements/1.1/"
   xmlns:cc="http://creativecommons.org/ns#"
   xmlns:rdf="http://www.w3.org/1999/02/22-rdf-syntax-ns#"
   xmlns:svg="http://www.w3.org/2000/svg"
   xmlns="http://www.w3.org/2000/svg"
   version="1.1"
   width="300"
   height="273.24017"
   viewBox="0 0 300 273.24018"
   id="svg38221">
  <defs
     id="defs38223" />
  <metadata
     id="metadata38226">
    <rdf:RDF>
      <cc:Work
         rdf:about="">
        <dc:format>image/svg+xml</dc:format>
        <dc:type
           rdf:resource="http://purl.org/dc/dcmitype/StillImage" />
        <dc:title></dc:title>
      </cc:Work>
    </rdf:RDF>
  </metadata>
  <g
     transform="translate(-54.450141,-510.12166)"
     id="layer1">
    <g
       transform="matrix(14.652912,0,0,14.652912,-1280.9646,-14578.65)"
       id="g38204">
      <path
         d="m 111.61022,1048.3931 -20.473746,0 0,-18.6475 20.473746,0 0,18.6475 z"
         id="path14013"
         style="fill:#000000;fill-opacity:1;fill-rule:nonzero;stroke:none" />
      <path
         d="m 101.16235,1042.7147 8.37,0 0,-2.3137 -5.68,0 0,-1.9675 5.06,0 0,-2.08 -5.06,0 0,-1.8101 5.53625,0 0,-2.1524 -8.22625,0 0,10.3237 z m -3.89,-5.8437 c 1.08375,0 1.46,1.0587 1.46,2.0137 0,1.025 -0.37625,2.165 -1.47625,2.165 -1.11375,0 -1.4875,-0.8512 -1.4875,-2.165 0,-1.55 0.83875,-2.0137 1.50375,-2.0137 m -3.87625,5.8437 2.3425,0 0,-0.8675 0.03,0 c 0.475,0.7075 1.2,1.0825 2.0675,1.0825 2.35625,0 3.3525,-2.0237 3.3525,-4.1363 0,-1.9474 -1.04,-3.8012 -3.165,-3.8012 -0.925,0 -1.6325,0.3488 -2.14125,1.04 l -0.025,0 0,-3.6412 -2.46125,0 0,10.3237 z"
         id="path14017"
         style="fill:#ffffff;fill-opacity:1;fill-rule:nonzero;stroke:none" />
      <path
         d="m 108.99797,1044.2626 c 0,0.19 -0.095,0.2975 -0.33625,0.2975 l -0.435,0 0,-0.5875 0.4475,0 c 0.2325,0 0.32375,0.1163 0.32375,0.29 m 0.79625,1.7925 -0.5375,-1.0262 c 0.29625,-0.1338 0.48625,-0.385 0.48625,-0.7863 0,-0.6362 -0.42125,-0.875 -1.05,-0.875 l -1.2025,0 0,2.6875 0.73625,0 0,-0.9062 0.2975,0 0.4375,0.9062 0.8325,0 z m -2.64125,-1.15 0,-1.5375 -0.7575,0 0,1.5375 c 0,0.3338 -0.12625,0.5338 -0.415,0.5338 -0.2925,0 -0.42375,-0.2 -0.42375,-0.5338 l 0,-1.5375 -0.7575,0 0,1.5375 c 0,0.8563 0.49375,1.1938 1.17,1.1938 0.675,0 1.18375,-0.3375 1.18375,-1.1938 m -3.355,-0.19 c 0,0.4838 -0.16875,0.7325 -0.46375,0.7325 -0.3025,0 -0.4775,-0.26 -0.4775,-0.7412 0,-0.4825 0.1675,-0.7338 0.4675,-0.7338 0.3,0 0.47375,0.26 0.47375,0.7425 m 0.77375,-0.01 c 0,-0.8925 -0.51,-1.3813 -1.2375,-1.3813 -0.73125,0 -1.2475,0.4988 -1.2475,1.39 0,0.895 0.50875,1.3838 1.2375,1.3838 0.73,0 1.2475,-0.4988 1.2475,-1.3925 m -2.74875,-1.3388 -0.75875,0 0,2.6863 0.75875,0 0,-2.6863 z m -0.97,0 -0.82875,0 -0.19625,0.72 c -0.0925,0.3413 -0.2225,0.88 -0.2725,1.14 -0.04875,-0.26 -0.17875,-0.805 -0.27375,-1.14 l -0.195,-0.72 -0.83375,0 0.92125,2.6875 0.75375,0 0.925,-2.6875 z m -3.34,1.6225 -0.44375,0 0.05,-0.1737 c 0.09625,-0.345 0.13625,-0.4913 0.17375,-0.6713 0.0325,0.18 0.07625,0.3225 0.17,0.6713 l 0.05,0.1737 z m 1.13375,1.065 -0.975,-2.6875 -0.75125,0 -0.97625,2.6875 0.79875,0 0.145,-0.4725 0.80625,0 0.14625,0.4725 0.80625,0 z m -2.89375,0 0,-2.6875 -0.75875,0 0,0.9775 -0.8375,0 0,-0.9775 -0.76,0 0,2.6875 0.76,0 0,-1.06 0.8375,0 0,1.06 0.75875,0 z"
         id="path14021"
         style="fill:#ffffff;fill-opacity:1;fill-rule:nonzero;stroke:none" />
    </g>
  </g>
</svg>
